<svg width="15" height="15" viewBox="0 0 15 15" fill="none" xmlns="http://www.w3.org/2000/svg">
<g id="icon-park-outline:dribble" clip-path="url(#clip0_1_180)">
<g id="Group">
<path id="Vector" d="M7.50001 1.24999C8.32323 1.24894 9.1385 1.41103 9.89871 1.7269C10.6589 2.04278 11.349 2.50617 11.9291 3.09031C12.5074 3.66966 12.9659 4.35731 13.2783 5.11395C13.5908 5.87059 13.7511 6.68138 13.75 7.49999C13.75 10.9519 10.9519 13.75 7.50001 13.75C5.89743 13.7522 4.35568 13.1366 3.19532 12.0312C2.57988 11.448 2.08993 10.7453 1.75544 9.9662C1.42095 9.18708 1.24896 8.34789 1.25001 7.49999C1.24895 6.68138 1.40922 5.87059 1.72167 5.11395C2.03411 4.35731 2.49261 3.66966 3.07094 3.09031C3.65101 2.50617 4.34109 2.04278 5.1013 1.7269C5.86151 1.41103 6.67678 1.24894 7.50001 1.24999Z" stroke="white" stroke-width="1.66667" stroke-linecap="round" stroke-linejoin="round"/>
<path id="Vector_2" d="M7.49998 1.25016C7.49998 2.16203 7.15623 4.67766 8.14467 6.92922C9.21873 9.37516 10.8847 11.1461 11.9209 11.918" stroke="white" stroke-width="1.66667" stroke-linecap="round" stroke-linejoin="round"/>
<path id="Vector_3" d="M1.70441 9.84375C2.60722 8.86562 4.90566 6.73125 7.18753 5.9375C9.46941 5.14375 12.275 4.85 13.0735 4.66875" stroke="white" stroke-width="1.66667" stroke-linecap="round" stroke-linejoin="round"/>
<path id="Vector_4" d="M6.71879 13.7017C6.79004 12.521 6.8541 9.39572 6.00004 7.39572C5.14597 5.39572 3.57504 3.67479 3.0766 3.08447M9.8791 13.281C11.2122 12.7303 12.3148 11.7371 13.0013 10.4685" stroke="white" stroke-width="1.66667" stroke-linecap="round" stroke-linejoin="round"/>
<path id="Vector_5" d="M7.5 13.75C5.89743 13.7522 4.35568 13.1366 3.19532 12.0312C2.57988 11.448 2.08992 10.7453 1.75544 9.9662C1.42095 9.18708 1.24896 8.34789 1.25 7.49999M1.77 4.99999C2.08142 4.28824 2.52258 3.64065 3.07094 3.09031C3.65101 2.50617 4.34109 2.04278 5.1013 1.7269C5.86151 1.41103 6.67678 1.24894 7.5 1.24999C8.26938 1.24999 9.00657 1.38906 9.6875 1.64374M13.75 7.49999C13.7511 6.68138 13.5908 5.87059 13.2783 5.11395C12.9659 4.35731 12.5074 3.66966 11.9291 3.09031" stroke="white" stroke-width="1.66667" stroke-linecap="round" stroke-linejoin="round"/>
</g>
</g>
<defs>
<clipPath id="clip0_1_180">
<rect width="15" height="15" fill="white" transform="matrix(0 -1 1 0 0 15)"/>
</clipPath>
</defs>
</svg>
