<svg width="15" height="15" viewBox="0 0 15 15" fill="none" xmlns="http://www.w3.org/2000/svg">
<g id="simple-icons:facebook" clip-path="url(#clip0_1_193)">
<path id="Vector" d="M7.54565 0C3.40378 0 0.0456543 3.35812 0.0456543 7.5C0.0456543 11.6419 3.40378 15 7.54565 15C11.2894 15 14.3919 12.2575 14.9544 8.67188H9.71378V10.5763H7.54503V8.67188H5.89378C4.0144 8.67188 2.97565 7.55188 2.97565 5.83875C2.97565 5.01875 3.12253 4.16 3.12253 4.16H4.96815V5.10625C4.96815 6.03813 5.54628 6.32875 6.1394 6.32875H7.54565V4.24875L9.7144 4.58125V6.32875L14.955 6.32875C14.3919 2.7425 11.2888 0 7.54565 0Z" fill="white"/>
</g>
<defs>
<clipPath id="clip0_1_193">
<rect width="15" height="15" fill="white" transform="matrix(0 -1 1 0 0 15)"/>
</clipPath>
</defs>
</svg>
