<svg width="48" height="32" viewBox="0 0 48 32" fill="none" xmlns="http://www.w3.org/2000/svg">
<g id="Group">
<g id="Group_2">
<path id="Vector" d="M37.6151 18.2159L38.989 18.1839C54.0384 17.9283 49.0219 -4.18255 32.9181 1.66467C21.032 5.97819 23.2367 25.8204 35.9536 29.0795C41.5771 30.5173 47.8397 29.4949 43.1747 27.8973C39.1807 26.5553 35.9536 22.6892 36.1772 19.526C36.2411 18.823 36.8482 18.2159 37.6151 18.2159Z" fill="white"/>
<path id="Vector_2" d="M8.2513 0.86585C-6.22297 6.4255 -0.343814 30.7091 15.728 31.7635C19.9138 32.0511 21.0002 31.0606 17.8369 29.8784C14.7695 28.7281 10.9033 23.2962 10.4879 19.6218C10.3921 18.8869 10.9672 18.2797 11.7021 18.2797C15.9197 18.2797 17.6771 18.2798 20.1375 14.8929C26.1764 6.52148 18.1564 -2.93644 8.2513 0.86585Z" fill="white"/>
</g>
</g>
</svg>
