<svg width="15" height="15" viewBox="0 0 15 15" fill="none" xmlns="http://www.w3.org/2000/svg">
<g id="ant-design:instagram-outlined">
<path id="Vector" d="M4.49561 7.50005C4.49561 9.16265 5.83741 10.5044 7.50001 10.5044C9.16261 10.5044 10.5044 9.16265 10.5044 7.50005C10.5044 5.83746 9.16261 4.49566 7.50001 4.49566C5.83741 4.49566 4.49561 5.83746 4.49561 7.50005ZM9.45265 7.50005C9.45265 8.57525 8.5752 9.45269 7.50001 9.45269C6.42481 9.45269 5.54737 8.57525 5.54737 7.50005C5.54737 6.42486 6.42481 5.54742 7.50001 5.54742C8.5752 5.54742 9.45265 6.42486 9.45265 7.50005ZM3.67237 4.37261C3.67237 4.76079 3.98585 5.07427 4.37403 5.07427C4.76222 5.07427 5.07569 4.76079 5.07569 4.37261C5.07569 3.98443 4.76368 3.67095 4.37403 3.67095C4.28186 3.67083 4.19056 3.68891 4.10538 3.72413C4.0202 3.75935 3.9428 3.81103 3.87763 3.8762C3.81245 3.94138 3.76077 4.01878 3.72555 4.10396C3.69033 4.18914 3.67226 4.28044 3.67237 4.37261ZM7.50001 1.64361C6.69141 1.64361 5.89015 1.63628 5.08302 1.68169C4.14552 1.7271 3.31349 1.94097 2.62794 2.62652C1.94093 3.31353 1.72852 4.1441 1.68311 5.0816C1.6377 5.89019 1.64503 6.69146 1.64503 7.49859C1.64503 8.30718 1.6377 9.10845 1.68311 9.91558C1.72852 10.8531 1.94239 11.6851 2.62794 12.3707C3.31495 13.0577 4.14552 13.2701 5.08302 13.3155C5.89161 13.3609 6.69288 13.3536 7.50001 13.3536C8.30714 13.3536 9.10987 13.3609 9.917 13.3155C10.8545 13.2701 11.6865 13.0562 12.3721 12.3707C13.0591 11.6836 13.2715 10.8531 13.3169 9.91558C13.3623 9.10699 13.355 8.30572 13.355 7.49859C13.355 6.68999 13.3623 5.88872 13.3169 5.0816C13.2715 4.1441 13.0576 3.31206 12.3721 2.62652C11.6851 1.93951 10.8545 1.7271 9.917 1.68169C9.10987 1.63482 8.3086 1.64361 7.50001 1.64361ZM10.9541 2.93267C11.2207 3.0396 11.4199 3.16851 11.625 3.37505C11.8316 3.5816 11.9605 3.77935 12.0674 4.04595C12.3735 4.81646 12.3047 6.64605 12.3047 7.50005C12.3047 8.35406 12.3735 10.1851 12.0689 10.9556C11.9619 11.2222 11.833 11.4214 11.6265 11.6265C11.4199 11.8331 11.2222 11.962 10.9556 12.0689C10.1836 12.3736 8.35401 12.3047 7.50001 12.3047C6.646 12.3047 4.81495 12.3736 4.04444 12.0689C3.77784 11.962 3.57862 11.8331 3.37354 11.6265C3.16847 11.42 3.03809 11.2222 2.93116 10.9556C2.62647 10.1851 2.69532 8.35406 2.69532 7.50005C2.69532 6.64605 2.62647 4.81499 2.93116 4.04449C3.03809 3.77788 3.167 3.57867 3.37354 3.37359C3.58009 3.16704 3.77784 3.03814 4.04444 2.9312C4.81495 2.62652 6.646 2.69536 7.50001 2.69536C8.35401 2.69536 10.1836 2.62652 10.9541 2.93267Z" fill="white"/>
</g>
</svg>
