<svg width="154" height="158" viewBox="0 0 154 158" fill="none" xmlns="http://www.w3.org/2000/svg">
<g id="Looper-3">
<path id="Ellipse 24_28" opacity="0.0344828" d="M19.7306 36.8119C20.4417 35.9645 21.521 35.4294 22.9651 35.2128C24.4116 34.9958 26.2053 35.102 28.3092 35.5226C32.5167 36.3635 37.9026 38.4484 44.1054 41.6039C56.5066 47.9127 72.1127 58.4701 87.9785 71.783C103.844 85.096 116.951 98.6318 125.318 109.749C129.502 115.31 132.491 120.252 134.05 124.249C134.829 126.248 135.245 127.996 135.283 129.458C135.32 130.918 134.981 132.074 134.269 132.921C133.558 133.769 132.479 134.304 131.035 134.521C129.588 134.737 127.795 134.631 125.691 134.211C121.483 133.37 116.097 131.285 109.895 128.129C97.4935 121.821 81.8874 111.263 66.0216 97.9502C50.1558 84.6372 37.0488 71.1015 28.6824 59.9842C24.4978 54.4236 21.5094 49.4815 19.9505 45.484C19.1711 43.4851 18.755 41.7371 18.7175 40.2749C18.68 38.8151 19.0196 37.6593 19.7306 36.8119Z" stroke="#222222" stroke-width="0.599278"/>
<path id="Ellipse 24_27" opacity="0.0689655" d="M24.1368 31.4044C24.919 30.6222 26.0408 30.1831 27.4983 30.0932C28.9582 30.0032 30.7358 30.2653 32.7951 30.8676C36.9132 32.0721 42.097 34.6184 48.0011 38.3025C59.8053 45.6681 74.4319 57.5455 89.077 72.1906C103.722 86.8358 115.599 101.462 122.965 113.266C126.649 119.171 129.196 124.354 130.4 128.473C131.002 130.532 131.264 132.309 131.174 133.769C131.084 135.227 130.645 136.349 129.863 137.131C129.081 137.913 127.959 138.352 126.502 138.442C125.042 138.532 123.264 138.27 121.205 137.668C117.087 136.463 111.903 133.917 105.999 130.233C94.1948 122.867 79.5682 110.99 64.923 96.3446C50.2779 81.6995 38.4005 67.0729 31.0349 55.2687C27.3508 49.3646 24.8045 44.1808 23.6 40.0627C22.9977 38.0034 22.7356 36.2258 22.8256 34.7659C22.9155 33.3084 23.3546 32.1866 24.1368 31.4044Z" stroke="#222222" stroke-width="0.599278"/>
<path id="Ellipse 24_26" opacity="0.103448" d="M28.9453 26.3988C29.7927 25.6878 30.9485 25.3482 32.4083 25.3857C33.8705 25.4232 35.6185 25.8393 37.6174 26.6187C41.6149 28.1776 46.557 31.166 52.1176 35.3506C63.2349 43.7171 76.7706 56.824 90.0836 72.6898C103.397 88.5556 113.954 104.162 120.263 116.563C123.418 122.766 125.503 128.152 126.344 132.359C126.765 134.463 126.871 136.257 126.654 137.703C126.437 139.147 125.902 140.227 125.055 140.938C124.207 141.649 123.052 141.988 121.592 141.951C120.13 141.913 118.382 141.497 116.383 140.718C112.385 139.159 107.443 136.171 101.882 131.986C90.7652 123.619 77.2294 110.512 63.9164 94.6467C50.6034 78.7809 40.0461 63.1748 33.7373 50.7736C30.5817 44.5708 28.4969 39.1849 27.6559 34.9774C27.2354 32.8735 27.1292 31.0798 27.3462 29.6333C27.5627 28.1892 28.0979 27.1099 28.9453 26.3988Z" stroke="#222222" stroke-width="0.599278"/>
<path id="Ellipse 24_25" opacity="0.137931" d="M34.1195 21.8292C35.0256 21.1947 36.2067 20.9572 37.6576 21.1217C39.111 21.2865 40.8161 21.8534 42.7394 22.8041C46.5859 24.7054 51.2487 28.1132 56.4234 32.7665C66.7692 42.07 79.1111 56.3069 90.9906 73.2726C102.87 90.2383 112.027 106.705 117.231 119.609C119.834 126.063 121.442 131.61 121.913 135.875C122.148 138.008 122.098 139.804 121.755 141.226C121.414 142.646 120.787 143.674 119.881 144.309C118.974 144.943 117.793 145.181 116.342 145.016C114.889 144.851 113.184 144.284 111.261 143.334C107.414 141.432 102.751 138.025 97.5766 133.371C87.2308 124.068 74.8889 109.831 63.0094 92.8653C51.1298 75.8996 41.9728 59.4327 36.7688 46.5289C34.1659 40.0747 32.5584 34.5275 32.0874 30.2627C31.8518 28.1302 31.9023 26.3341 32.2445 24.912C32.5862 23.4923 33.2133 22.4637 34.1195 21.8292Z" stroke="#222222" stroke-width="0.599278"/>
<path id="Ellipse 24_24" opacity="0.172414" d="M39.62 17.7258C40.5781 17.1727 41.7753 17.039 43.2064 17.3294C44.6399 17.6203 46.289 18.3336 48.1222 19.4483C51.7884 21.6776 56.1364 25.4788 60.8859 30.5655C70.3814 40.7353 81.4356 55.9936 91.7912 73.9301C102.147 91.8667 109.834 109.069 113.893 122.377C115.924 129.034 117.042 134.7 117.139 138.989C117.188 141.134 116.981 142.919 116.516 144.306C116.052 145.691 115.338 146.661 114.38 147.214C113.422 147.767 112.225 147.901 110.794 147.61C109.36 147.319 107.711 146.606 105.878 145.491C102.212 143.262 97.8636 139.461 93.1141 134.374C83.6186 124.204 72.5645 108.946 62.2088 91.0095C51.8531 73.073 44.1661 55.8707 40.1066 42.5624C38.0761 35.9059 36.9582 30.2398 36.8607 25.9502C36.8119 23.8052 37.0187 22.0204 37.4836 20.6335C37.9476 19.2489 38.662 18.2789 39.62 17.7258Z" stroke="#222222" stroke-width="0.599278"/>
<path id="Ellipse 24_23" opacity="0.206897" d="M45.4051 14.1149C46.4077 13.6474 47.612 13.6186 49.0123 14.0326C50.4151 14.4473 51.9958 15.3016 53.7248 16.5719C57.1827 19.1122 61.1829 23.2779 65.471 28.7592C74.0441 39.7178 83.7263 55.8815 92.4792 74.6523C101.232 93.4232 107.391 111.23 110.275 124.841C111.717 131.65 112.337 137.392 112.061 141.673C111.922 143.814 111.561 145.574 110.977 146.916C110.394 148.254 109.598 149.158 108.595 149.626C107.592 150.093 106.388 150.122 104.988 149.708C103.585 149.294 102.004 148.439 100.275 147.169C96.8174 144.629 92.8171 140.463 88.5291 134.982C79.956 124.023 70.2738 107.859 61.5208 89.0885C52.7678 70.3177 46.6093 52.5109 43.7252 38.8994C42.2826 32.0913 41.6628 26.3493 41.9394 22.0675C42.0778 19.9264 42.4394 18.1664 43.0234 16.8253C43.6063 15.4865 44.4026 14.5824 45.4051 14.1149Z" stroke="#222222" stroke-width="0.599278"/>
<path id="Ellipse 24_22" opacity="0.241379" d="M51.4306 11.0197C52.4701 10.6413 53.6724 10.7176 55.0313 11.252C56.3925 11.7874 57.8927 12.7762 59.5045 14.1924C62.7278 17.0244 66.3498 21.5229 70.1438 27.357C77.7291 39.0212 85.9657 55.9672 93.0494 75.4295C100.133 94.8918 104.716 113.168 106.403 126.979C107.247 133.887 107.364 139.661 106.715 143.902C106.391 146.023 105.877 147.745 105.178 149.03C104.481 150.313 103.609 151.144 102.569 151.522C101.53 151.901 100.328 151.824 98.9687 151.29C97.6075 150.755 96.1073 149.766 94.4955 148.35C91.2722 145.518 87.6502 141.019 83.8562 135.185C76.2709 123.521 68.0343 106.575 60.9506 87.1125C53.8669 67.6503 49.2838 49.3745 47.5969 35.5634C46.7532 28.6555 46.6362 22.8813 47.285 18.6399C47.6094 16.5191 48.123 14.7972 48.8217 13.5121C49.5191 12.2292 50.3911 11.398 51.4306 11.0197Z" stroke="#222222" stroke-width="0.599278"/>
<path id="Ellipse 24_21" opacity="0.275862" d="M57.6507 8.45958C58.7192 8.17328 59.9103 8.354 61.2174 9.00486C62.5268 9.65683 63.9352 10.7727 65.4174 12.3239C68.3816 15.4261 71.5977 20.2231 74.8688 26.3657C81.4087 38.6466 88.137 56.246 93.4975 76.2516C98.8579 96.2572 101.831 114.863 102.308 128.768C102.546 135.724 102.159 141.486 101.143 145.655C100.635 147.739 99.9735 149.41 99.1655 150.629C98.3589 151.846 97.4178 152.598 96.3493 152.885C95.2808 153.171 94.0897 152.99 92.7826 152.339C91.4732 151.687 90.0648 150.572 88.5826 149.02C85.6184 145.918 82.4023 141.121 79.1312 134.979C72.5914 122.698 65.863 105.098 60.5026 85.0926C55.1421 65.087 52.1692 46.4813 51.6925 32.5758C51.454 25.6206 51.8407 19.8582 52.8567 15.6895C53.3647 13.605 54.0265 11.9345 54.8345 10.7152C55.6411 9.49793 56.5822 8.74589 57.6507 8.45958Z" stroke="#222222" stroke-width="0.599278"/>
<path id="Ellipse 24_20" opacity="0.310345" d="M64.018 6.44866C65.1074 6.25657 66.2782 6.54041 67.5237 7.30272C68.7713 8.06634 70.077 9.30067 71.4184 10.9752C74.1009 14.3239 76.8867 19.383 79.61 25.7873C85.0546 38.5915 90.2234 56.7103 93.8199 77.107C97.4164 97.5037 98.7563 116.298 98.0193 130.192C97.6507 137.141 96.7632 142.848 95.3878 146.912C94.7 148.945 93.8952 150.551 92.984 151.695C92.0744 152.838 91.0713 153.505 89.9819 153.697C88.8925 153.889 87.7217 153.605 86.4763 152.843C85.2287 152.079 83.923 150.845 82.5816 149.17C79.899 145.822 77.1132 140.763 74.39 134.358C68.9453 121.554 63.7765 103.435 60.18 83.0386C56.5835 62.6419 55.2436 43.848 55.9806 29.9538C56.3493 23.0043 57.2367 17.2975 58.6122 13.2333C59.2999 11.201 60.1048 9.59447 61.0159 8.45021C61.9256 7.30791 62.9286 6.64075 64.018 6.44866Z" stroke="#222222" stroke-width="0.599278"/>
<path id="Ellipse 24_19" opacity="0.344828" d="M70.4843 4.99815C71.5863 4.90174 72.7278 5.28654 73.9021 6.1545C75.0784 7.02395 76.2716 8.36739 77.4619 10.1524C79.8424 13.7222 82.1767 19.0049 84.3314 25.6222C88.6394 38.8521 92.2093 57.3525 94.0144 77.985C95.8196 98.6175 95.5164 117.457 93.5712 131.234C92.5983 138.125 91.2168 143.732 89.4924 147.661C88.6301 149.626 87.6883 151.156 86.6809 152.217C85.6752 153.275 84.6178 153.853 83.5158 153.949C82.4138 154.045 81.2722 153.661 80.0979 152.793C78.9216 151.923 77.7285 150.58 76.5381 148.795C74.1576 145.225 71.8234 139.942 69.6686 133.325C65.3607 120.095 61.7907 101.595 59.9856 80.9622C58.1805 60.3296 58.4837 41.4904 60.4288 27.7134C61.4017 20.8224 62.7832 15.2147 64.5076 11.2858C65.3699 9.32116 66.3117 7.79093 67.3191 6.73043C68.3248 5.67176 69.3823 5.09457 70.4843 4.99815Z" stroke="#222222" stroke-width="0.599278"/>
<path id="Ellipse 24_18" opacity="0.37931" d="M77 4.11412C78.1062 4.11412 79.2099 4.59695 80.3041 5.56395C81.4001 6.53261 82.4717 7.97493 83.5019 9.85692C85.5622 13.6206 87.4271 19.0866 88.9969 25.8665C92.1354 39.4216 94.0794 58.1627 94.0794 78.874C94.0794 99.5854 92.1354 118.327 88.9969 131.882C87.4271 138.662 85.5622 144.127 83.5019 147.891C82.4717 149.773 81.4001 151.215 80.3041 152.184C79.2099 153.151 78.1062 153.634 77 153.634C75.8938 153.634 74.7901 153.151 73.696 152.184C72.5999 151.215 71.5284 149.773 70.4981 147.891C68.4378 144.127 66.5729 138.662 65.0031 131.882C61.8646 118.327 59.9206 99.5854 59.9206 78.874C59.9206 58.1627 61.8646 39.4216 65.0031 25.8665C66.5729 19.0866 68.4378 13.6206 70.4981 9.85692C71.5284 7.97493 72.5999 6.53261 73.696 5.56395C74.7901 4.59695 75.8938 4.11412 77 4.11412Z" stroke="#222222" stroke-width="0.599278"/>
<path id="Ellipse 24_17" opacity="0.413793" d="M83.5158 3.79925C84.6178 3.89566 85.6752 4.47285 86.6809 5.53153C87.6883 6.59203 88.6301 8.12226 89.4924 10.0869C91.2168 14.0158 92.5983 19.6235 93.5712 26.5145C95.5164 40.2915 95.8196 59.1307 94.0144 79.7633C92.2093 100.396 88.6393 118.896 84.3314 132.126C82.1766 138.743 79.8424 144.026 77.4619 147.596C76.2716 149.381 75.0784 150.724 73.9021 151.594C72.7278 152.462 71.5863 152.847 70.4843 152.75C69.3823 152.654 68.3248 152.077 67.3191 151.018C66.3117 149.957 65.3699 148.427 64.5076 146.463C62.7832 142.534 61.4017 136.926 60.4288 130.035C58.4837 116.258 58.1805 97.4186 59.9856 76.7861C61.7907 56.1536 65.3607 37.6532 69.6686 24.4233C71.8234 17.806 74.1576 12.5233 76.5381 8.95352C77.7284 7.16848 78.9216 5.82504 80.0979 4.9556C81.2722 4.08764 82.4138 3.70284 83.5158 3.79925Z" stroke="#222222" stroke-width="0.599278"/>
<path id="Ellipse 24_16" opacity="0.448276" d="M89.982 4.05112C91.0714 4.24321 92.0745 4.91036 92.9841 6.05266C93.8952 7.19693 94.7001 8.80342 95.3878 10.8357C96.7633 14.9 97.6507 20.6068 98.0194 27.5563C98.7564 41.4504 97.4165 60.2444 93.82 80.6411C90.2235 101.038 85.0547 119.157 79.61 131.961C76.8868 138.365 74.101 143.424 71.4184 146.773C70.0771 148.447 68.7713 149.682 67.5237 150.445C66.2783 151.208 65.1075 151.492 64.0181 151.299C62.9287 151.107 61.9256 150.44 61.016 149.298C60.1048 148.154 59.3 146.547 58.6122 144.515C57.2368 140.451 56.3493 134.744 55.9807 127.794C55.2437 113.9 56.5836 95.1061 60.1801 74.7095C63.7766 54.3128 68.9454 36.1939 74.39 23.3898C77.1133 16.9855 79.8991 11.9264 82.5816 8.57763C83.923 6.90313 85.2287 5.6688 86.4763 4.90518C87.7218 4.14287 88.8926 3.85903 89.982 4.05112Z" stroke="#222222" stroke-width="0.599278"/>
<path id="Ellipse 24_15" opacity="0.482759" d="M96.3493 4.86373C97.4178 5.15003 98.3589 5.90207 99.1655 7.11931C99.9735 8.33863 100.635 10.0091 101.143 12.0937C102.159 16.2623 102.546 22.0248 102.308 28.9799C101.831 42.8855 98.8579 61.4911 93.4975 81.4967C88.137 101.502 81.4087 119.102 74.8688 131.383C71.5977 137.525 68.3816 142.322 65.4174 145.425C63.9352 146.976 62.5268 148.092 61.2174 148.744C59.9103 149.394 58.7192 149.575 57.6507 149.289C56.5822 149.002 55.6411 148.25 54.8345 147.033C54.0265 145.814 53.3648 144.143 52.8567 142.059C51.8407 137.89 51.454 132.128 51.6925 125.173C52.1692 111.267 55.1421 92.6614 60.5026 72.6558C65.863 52.6502 72.5914 35.0508 79.1312 22.7699C82.4023 16.6273 85.6184 11.8302 88.5826 8.72803C90.0648 7.17681 91.4732 6.06098 92.7826 5.409C94.0897 4.75814 95.2808 4.57742 96.3493 4.86373Z" stroke="#222222" stroke-width="0.599278"/>
<path id="Ellipse 24_14" opacity="0.517241" d="M102.569 6.22565C103.609 6.604 104.481 7.4352 105.178 8.7181C105.877 10.0032 106.391 11.725 106.715 13.8459C107.364 18.0873 107.247 23.8614 106.403 30.7694C104.716 44.5804 100.133 62.8562 93.0494 82.3185C85.9657 101.781 77.7291 118.727 70.1438 130.391C66.3498 136.225 62.7278 140.724 59.5045 143.556C57.8928 144.972 56.3925 145.961 55.0313 146.496C53.6724 147.03 52.4701 147.107 51.4306 146.728C50.3911 146.35 49.5191 145.519 48.8217 144.236C48.1231 142.951 47.6094 141.229 47.285 139.108C46.6362 134.867 46.7532 129.093 47.5969 122.185C49.2838 108.374 53.8669 90.0978 60.9506 70.6355C68.0343 51.1732 76.2709 34.2272 83.8562 22.563C87.6502 16.7289 91.2722 12.2304 94.4955 9.39834C96.1073 7.98221 97.6075 6.99337 98.9687 6.45799C100.328 5.92354 101.53 5.84731 102.569 6.22565Z" stroke="#222222" stroke-width="0.599278"/>
<path id="Ellipse 24_13" opacity="0.551724" d="M108.595 8.12233C109.597 8.58983 110.394 9.49387 110.977 10.8327C111.561 12.1738 111.922 13.9338 112.061 16.0749C112.337 20.3567 111.717 26.0987 110.275 32.9068C107.391 46.5183 101.232 64.3251 92.4792 83.0959C83.7262 101.867 74.044 118.03 65.471 128.989C61.1829 134.47 57.1827 138.636 53.7248 141.176C51.9957 142.447 50.415 143.301 49.0123 143.716C47.612 144.13 46.4077 144.101 45.4051 143.633C44.4025 143.166 43.6063 142.262 43.0233 140.923C42.4394 139.582 42.0777 137.822 41.9394 135.681C41.6627 131.399 42.2825 125.657 43.7251 118.849C46.6093 105.237 52.7678 87.4306 61.5208 68.6598C70.2738 49.8889 79.956 33.7252 88.529 22.7666C92.8171 17.2853 96.8173 13.1196 100.275 10.5793C102.004 9.30899 103.585 8.45466 104.988 8.03996C106.388 7.62598 107.592 7.65483 108.595 8.12233Z" stroke="#222222" stroke-width="0.599278"/>
<path id="Ellipse 24_12" opacity="0.586207" d="M114.38 10.5345C115.338 11.0876 116.052 12.0576 116.516 13.4421C116.981 14.829 117.188 16.6139 117.139 18.7588C117.042 23.0484 115.924 28.7146 113.893 35.371C109.834 48.6793 102.147 65.8816 91.7912 83.8182C81.4356 101.755 70.3814 117.013 60.8859 127.183C56.1364 132.269 51.7884 136.071 48.1222 138.3C46.289 139.415 44.6399 140.128 43.2064 140.419C41.7753 140.709 40.5781 140.576 39.6201 140.022C38.662 139.469 37.9476 138.499 37.4836 137.115C37.0187 135.728 36.8119 133.943 36.8607 131.798C36.9582 127.508 38.0761 121.842 40.1066 115.186C44.1661 101.878 51.8531 84.6753 62.2088 66.7387C72.5645 48.8022 83.6186 33.5439 93.1141 23.3741C97.8636 18.2874 102.212 14.4862 105.878 12.2569C107.711 11.1422 109.36 10.4289 110.794 10.138C112.225 9.84766 113.422 9.98137 114.38 10.5345Z" stroke="#222222" stroke-width="0.599278"/>
<path id="Ellipse 24_11" opacity="0.62069" d="M119.881 13.4396C120.787 14.0741 121.414 15.1026 121.755 16.5223C122.098 17.9445 122.148 19.7406 121.913 21.8731C121.442 26.1379 119.834 31.6851 117.231 38.1392C112.027 51.0431 102.87 67.5099 90.9906 84.4757C79.1111 101.441 66.7692 115.678 56.4234 124.982C51.2487 129.635 46.5859 133.043 42.7394 134.944C40.8161 135.895 39.111 136.462 37.6576 136.627C36.2067 136.791 35.0256 136.554 34.1195 135.919C33.2133 135.285 32.5862 134.256 32.2445 132.836C31.9023 131.414 31.8518 129.618 32.0874 127.486C32.5584 123.221 34.1659 117.674 36.7688 111.219C41.9728 98.3156 51.1298 81.8487 63.0094 64.883C74.8889 47.9172 87.2308 33.6804 97.5766 24.3769C102.751 19.7235 107.414 16.3158 111.261 14.4145C113.184 13.4638 114.889 12.8969 116.342 12.7321C117.793 12.5675 118.974 12.8051 119.881 13.4396Z" stroke="#222222" stroke-width="0.599278"/>
<path id="Ellipse 24_10" opacity="0.655172" d="M125.055 16.8104C125.902 17.5214 126.437 18.6008 126.654 20.0448C126.871 21.4914 126.765 23.285 126.344 25.389C125.503 29.5964 123.418 34.9824 120.263 41.1852C113.954 53.5863 103.397 69.1924 90.0836 85.0582C76.7706 100.924 63.2349 114.031 52.1176 122.397C46.557 126.582 41.6149 129.57 37.6174 131.129C35.6185 131.909 33.8705 132.325 32.4083 132.362C30.9485 132.4 29.7927 132.06 28.9453 131.349C28.0979 130.638 27.5627 129.559 27.3461 128.115C27.1292 126.668 27.2354 124.875 27.6559 122.771C28.4969 118.563 30.5817 113.177 33.7373 106.974C40.0461 94.5733 50.6034 78.9672 63.9164 63.1014C77.2294 47.2356 90.7652 34.1286 101.882 25.7622C107.443 21.5775 112.385 18.5891 116.383 17.0303C118.382 16.2508 120.13 15.8347 121.592 15.7972C123.052 15.7598 124.207 16.0993 125.055 16.8104Z" stroke="#222222" stroke-width="0.599278"/>
<path id="Ellipse 24_9" opacity="0.689655" d="M129.863 20.6173C130.645 21.3995 131.084 22.5214 131.174 23.9788C131.264 25.4388 131.002 27.2164 130.4 29.2756C129.196 33.3938 126.649 38.5775 122.965 44.4817C115.599 56.2858 103.722 70.9124 89.077 85.5575C74.4319 100.203 59.8053 112.08 48.0011 119.446C42.097 123.13 36.9133 125.676 32.7951 126.881C30.7358 127.483 28.9582 127.745 27.4983 127.655C26.0408 127.565 24.919 127.126 24.1368 126.344C23.3546 125.562 22.9155 124.44 22.8256 122.982C22.7356 121.522 22.9977 119.745 23.6 117.686C24.8045 113.567 27.3508 108.384 31.0349 102.479C38.4005 90.6753 50.2779 76.0487 64.923 61.4036C79.5682 46.7585 94.1948 34.8811 105.999 27.5155C111.903 23.8314 117.087 21.285 121.205 20.0806C123.264 19.4783 125.042 19.2161 126.502 19.3062C127.959 19.3961 129.081 19.8351 129.863 20.6173Z" stroke="#222222" stroke-width="0.599278"/>
<path id="Ellipse 24_8" opacity="0.724138" d="M134.269 24.8266C134.98 25.674 135.32 26.8298 135.283 28.2896C135.245 29.7518 134.829 31.4998 134.05 33.4987C132.491 37.4962 129.502 42.4383 125.318 47.9989C116.951 59.1162 103.844 72.6519 87.9785 85.9649C72.1127 99.2779 56.5065 109.835 44.1054 116.144C37.9026 119.3 32.5167 121.384 28.3092 122.225C26.2053 122.646 24.4116 122.752 22.965 122.535C21.521 122.319 20.4417 121.783 19.7306 120.936C19.0195 120.089 18.68 118.933 18.7174 117.473C18.7549 116.011 19.171 114.263 19.9505 112.264C21.5093 108.266 24.4977 103.324 28.6824 97.7637C37.0488 86.6465 50.1558 73.1107 66.0216 59.7977C81.8874 46.4847 97.4935 35.9274 109.895 29.6186C116.097 26.463 121.483 24.3782 125.691 23.5372C127.795 23.1167 129.588 23.0105 131.035 23.2275C132.479 23.444 133.558 23.9792 134.269 24.8266Z" stroke="#222222" stroke-width="0.599278"/>
<path id="Ellipse 24_7" opacity="0.758621" d="M138.24 29.4014C138.874 30.3076 139.112 31.4886 138.947 32.9396C138.782 34.393 138.216 36.098 137.265 38.0214C135.364 41.8679 131.956 46.5307 127.302 51.7054C117.999 62.0512 103.762 74.3931 86.7964 86.2726C69.8307 98.1521 53.3638 107.309 40.46 112.513C34.0058 115.116 28.4586 116.724 24.1938 117.195C22.0613 117.43 20.2652 117.38 18.8431 117.037C17.4234 116.696 16.3948 116.069 15.7603 115.162C15.1258 114.256 14.8883 113.075 15.0528 111.624C15.2176 110.171 15.7845 108.466 16.7352 106.543C18.6365 102.696 22.0443 98.0332 26.6977 92.8585C36.0011 82.5127 50.238 70.1709 67.2037 58.2913C84.1694 46.4118 100.636 37.2547 113.54 32.0508C119.994 29.4479 125.541 27.8404 129.806 27.3693C131.939 27.1338 133.735 27.1843 135.157 27.5265C136.577 27.8681 137.605 28.4953 138.24 29.4014Z" stroke="#222222" stroke-width="0.599278"/>
<path id="Ellipse 24_6" opacity="0.793103" d="M141.744 34.3028C142.297 35.2608 142.431 36.4581 142.14 37.8892C141.85 39.3227 141.136 40.9718 140.022 42.805C137.792 46.4711 133.991 50.8192 128.904 55.5687C118.735 65.0642 103.476 76.1183 85.5397 86.474C67.6032 96.8297 50.4009 104.517 37.0926 108.576C30.4361 110.607 24.77 111.725 20.4804 111.822C18.3354 111.871 16.5505 111.664 15.1636 111.199C13.7791 110.735 12.8091 110.021 12.256 109.063C11.7029 108.105 11.5692 106.908 11.8596 105.476C12.1505 104.043 12.8638 102.394 13.9785 100.561C16.2078 96.8944 20.009 92.5464 25.0957 87.7969C35.2655 78.3014 50.5238 67.2472 68.4603 56.8916C86.3968 46.5359 103.599 38.8489 116.907 34.7894C123.564 32.7589 129.23 31.641 133.52 31.5434C135.665 31.4947 137.449 31.7015 138.836 32.1664C140.221 32.6304 141.191 33.3448 141.744 34.3028Z" stroke="#222222" stroke-width="0.599278"/>
<path id="Ellipse 24_5" opacity="0.827586" d="M144.756 39.4885C145.223 40.4911 145.252 41.6954 144.838 43.0958C144.423 44.4985 143.569 46.0792 142.299 47.8082C139.758 51.2661 135.593 55.2664 130.111 59.5544C119.153 68.1275 102.989 77.8097 84.2181 86.5626C65.4472 95.3156 47.6404 101.474 34.029 104.358C27.2209 105.801 21.4788 106.421 17.1971 106.144C15.056 106.006 13.296 105.644 11.9549 105.06C10.616 104.477 9.71201 103.681 9.24451 102.678C8.77701 101.676 8.74815 100.471 9.16214 99.0711C9.57684 97.6684 10.4312 96.0877 11.7014 94.3586C14.2418 90.9008 18.4075 86.9005 23.8887 82.6125C34.8474 74.0394 51.0111 64.3572 69.7819 55.6042C88.5528 46.8512 106.36 40.6927 119.971 37.8086C126.779 36.366 132.521 35.7462 136.803 36.0228C138.944 36.1612 140.704 36.5228 142.045 37.1068C143.384 37.6897 144.288 38.486 144.756 39.4885Z" stroke="#222222" stroke-width="0.599278"/>
<path id="Ellipse 24_4" opacity="0.862069" d="M147.251 44.9148C147.63 45.9543 147.553 47.1565 147.019 48.5154C146.484 49.8767 145.495 51.3769 144.079 52.9887C141.247 56.212 136.748 59.834 130.914 63.628C119.25 71.2133 102.304 79.4499 82.8415 86.5336C63.3792 93.6173 45.1034 98.2004 31.2924 99.8872C24.3845 100.731 18.6103 100.848 14.3689 100.199C12.248 99.8748 10.5262 99.3611 9.2411 98.6625C7.9582 97.9651 7.127 97.0931 6.74866 96.0536C6.37031 95.0141 6.44654 93.8118 6.98099 92.4529C7.51637 91.0917 8.50522 89.5914 9.92135 87.9796C12.7534 84.7563 17.2519 81.1344 23.086 77.3404C34.7502 69.7551 51.6962 61.5185 71.1585 54.4348C90.6208 47.3511 108.897 42.768 122.708 41.0811C129.616 40.2374 135.39 40.1204 139.631 40.7692C141.752 41.0936 143.474 41.6072 144.759 42.3058C146.042 43.0033 146.873 43.8753 147.251 44.9148Z" stroke="#222222" stroke-width="0.599278"/>
<path id="Ellipse 24_3" opacity="0.896552" d="M149.213 50.5355C149.499 51.604 149.318 52.7951 148.667 54.1022C148.015 55.4116 146.899 56.82 145.348 58.3022C142.246 61.2664 137.449 64.4825 131.306 67.7536C119.026 74.2935 101.426 81.0218 81.4205 86.3823C61.4149 91.7428 42.8092 94.7156 28.9037 95.1923C21.9485 95.4308 16.1861 95.0441 12.0174 94.0281C9.9329 93.5201 8.26238 92.8583 7.04305 92.0503C5.82582 91.2438 5.07378 90.3026 4.78748 89.2341C4.50117 88.1656 4.68189 86.9745 5.33275 85.6674C5.98473 84.358 7.10056 82.9496 8.65178 81.4674C11.754 78.5032 16.551 75.2871 22.6936 72.016C34.9745 65.4762 52.5739 58.7479 72.5795 53.3874C92.5851 48.0269 111.191 45.0541 125.096 44.5773C132.052 44.3389 137.814 44.7256 141.983 45.7415C144.067 46.2496 145.738 46.9113 146.957 47.7193C148.174 48.5259 148.926 49.467 149.213 50.5355Z" stroke="#222222" stroke-width="0.599278"/>
<path id="Ellipse 24_2" opacity="0.931035" d="M150.624 56.3036C150.816 57.393 150.532 58.5638 149.77 59.8092C149.006 61.0568 147.772 62.3626 146.098 63.7039C142.749 66.3865 137.69 69.1723 131.285 71.8956C118.481 77.3402 100.362 82.509 79.9658 86.1055C59.5691 89.702 40.7752 91.0419 26.881 90.3049C19.9315 89.9362 14.2247 89.0488 10.1604 87.6733C8.12815 86.9856 6.52167 86.1807 5.3774 85.2696C4.2351 84.36 3.56795 83.3569 3.37586 82.2675C3.18377 81.1781 3.4676 80.0073 4.22991 78.7618C4.99353 77.5143 6.22787 76.2085 7.90236 74.8671C11.2511 72.1846 16.3102 69.3988 22.7145 66.6755C35.5187 61.2309 53.6375 56.0621 74.0342 52.4656C94.4309 48.8691 113.225 47.5292 127.119 48.2662C134.069 48.6348 139.775 49.5223 143.84 50.8977C145.872 51.5855 147.478 52.3903 148.623 53.3015C149.765 54.2111 150.432 55.2142 150.624 56.3036Z" stroke="#222222" stroke-width="0.599278"/>
<path id="Ellipse 24_1" opacity="0.965517" d="M151.475 62.1707C151.572 63.2727 151.187 64.4143 150.319 65.5886C149.45 66.7648 148.106 67.958 146.321 69.1484C142.751 71.5288 137.469 73.8631 130.851 76.0178C117.621 80.3258 99.1211 83.8958 78.4886 85.7009C57.8561 87.506 39.0168 87.2028 25.2398 85.2577C18.3488 84.2847 12.7411 82.9033 8.8122 81.1788C6.84758 80.3166 5.31736 79.3748 4.25685 78.3673C3.19818 77.3616 2.62099 76.3042 2.52458 75.2022C2.42817 74.1002 2.81296 72.9586 3.68092 71.7844C4.55037 70.6081 5.89381 69.4149 7.67884 68.2246C11.2486 65.8441 16.5313 63.5098 23.1486 61.3551C36.3785 57.0471 54.8789 53.4771 75.5114 51.672C96.144 49.8669 114.983 50.1701 128.76 52.1153C135.651 53.0882 141.259 54.4697 145.188 56.1941C147.152 57.0564 148.683 57.9981 149.743 59.0056C150.802 60.0113 151.379 61.0687 151.475 62.1707Z" stroke="#222222" stroke-width="0.599278"/>
<path id="Ellipse 24" d="M151.76 68.0871C151.76 69.1933 151.277 70.297 150.31 71.3911C149.341 72.4872 147.899 73.5587 146.017 74.5889C142.253 76.6492 136.787 78.5142 130.008 80.084C116.452 83.2225 97.7113 85.1665 77 85.1665C56.2887 85.1665 37.5476 83.2225 23.9925 80.084C17.2126 78.5142 11.7466 76.6492 7.98289 74.5889C6.10091 73.5587 4.65859 72.4872 3.68992 71.3911C2.72293 70.297 2.2401 69.1933 2.2401 68.0871C2.2401 66.9809 2.72293 65.8772 3.68992 64.783C4.65859 63.687 6.10091 62.6154 7.98289 61.5852C11.7466 59.5249 17.2126 57.6599 23.9925 56.0901C37.5476 52.9516 56.2887 51.0076 77 51.0076C97.7113 51.0076 116.452 52.9516 130.008 56.0901C136.787 57.6599 142.253 59.5249 146.017 61.5852C147.899 62.6154 149.341 63.687 150.31 64.783C151.277 65.8772 151.76 66.9809 151.76 68.0871Z" stroke="#222222" stroke-width="0.599278"/>
</g>
</svg>
