<svg width="153" height="182" viewBox="0 0 153 182" fill="none" xmlns="http://www.w3.org/2000/svg">
<g id="Replace Here">
<g id="Logo">
<path id="Vector" fill-rule="evenodd" clip-rule="evenodd" d="M152.39 50.4738C166.189 50.4738 177.374 39.294 177.374 25.5031C177.374 11.7122 166.189 0.532471 152.39 0.532471C138.592 0.532471 127.406 11.7122 127.406 25.5031C127.406 39.294 138.592 50.4738 152.39 50.4738Z" fill="#FF2D33"/>
<path id="Vector_2" fill-rule="evenodd" clip-rule="evenodd" d="M152.39 115.988C166.189 115.988 177.374 104.809 177.374 91.0181C177.374 77.2267 166.189 66.0471 152.39 66.0471C138.592 66.0471 127.406 77.2267 127.406 91.0181C127.406 104.809 138.592 115.988 152.39 115.988Z" fill="#D53D5C"/>
<path id="Vector_3" fill-rule="evenodd" clip-rule="evenodd" d="M152.39 181.503C166.189 181.503 177.374 170.324 177.374 156.533C177.374 142.742 166.189 131.562 152.39 131.562C138.592 131.562 127.406 142.742 127.406 156.533C127.406 170.324 138.592 181.503 152.39 181.503Z" fill="#815EAD"/>
<path id="Vector_4" fill-rule="evenodd" clip-rule="evenodd" d="M88.7694 115.988C102.568 115.988 113.754 104.809 113.754 91.0181C113.754 77.2267 102.568 66.0471 88.7694 66.0471C74.9715 66.0471 63.7858 77.2267 63.7858 91.0181C63.7858 104.809 74.9715 115.988 88.7694 115.988Z" fill="#AB4D85"/>
<path id="Vector_5" fill-rule="evenodd" clip-rule="evenodd" d="M88.7694 181.503C102.568 181.503 113.754 170.323 113.754 156.532C113.754 142.742 102.568 131.562 88.7694 131.562C74.9715 131.562 63.7858 142.742 63.7858 156.532C63.7858 170.323 74.9715 181.503 88.7694 181.503Z" fill="#576ED6"/>
<path id="Vector_6" fill-rule="evenodd" clip-rule="evenodd" d="M25.149 181.503C38.9472 181.503 50.1328 170.324 50.1328 156.533C50.1328 142.742 38.9472 131.562 25.149 131.562C11.3508 131.562 0.1651 142.742 0.1651 156.533C0.1651 170.324 11.3508 181.503 25.149 181.503Z" fill="#2D7EFF"/>
</g>
</g>
</svg>
