<svg width="156" height="152" viewBox="0 0 156 152" fill="none" xmlns="http://www.w3.org/2000/svg">
<g id="Topology-1">
<path id="Vector 90" d="M2.80208 39.3374C-7.98337 0.25442 31.97 -3.72376 60.803 8.07728C77.6258 14.1464 88.6735 -4.72811 109.514 2.80447C130.354 10.337 105.371 34.0647 137.259 46.2424C169.147 58.42 153.579 112.906 125.709 113.533C97.8382 114.161 105.496 123.326 77.6257 144.291C49.7552 165.257 2.80214 136.131 14.4776 105.373C26.1531 74.615 14.4775 81.6455 2.80208 39.3374Z" stroke="#222222" stroke-width="0.753258"/>
<path id="Vector 91" d="M62.7861 69.7537C61.5417 66.0312 67.3704 60.026 72.0574 62.5889C76.3493 64.9357 80.7198 63.3529 83.6073 64.3992C91.209 67.1536 88.4128 68.6116 91.8109 71.8829C95.946 75.8637 97.9192 86.2875 88.4128 86.2875C80.5943 86.2875 82.9337 90.0849 77.0791 91.7675C71.2245 93.4501 64.5849 90.586 64.5849 83.0455C64.5849 80.2138 64.8587 75.9535 62.7861 69.7537Z" stroke="#222222" stroke-width="0.753258"/>
<path id="Vector 90 - Vector 91 - 91" d="M8.25441 41.9127C-1.66367 6.04428 35.1874 1.88182 61.8254 12.843C77.509 18.5738 87.9497 1.27122 107.158 8.21413C126.794 15.3123 103.828 37.0155 133.126 48.3835C162.491 59.816 148.518 110.296 122.317 110.867C96.2698 111.437 103.444 120.114 77.5753 139.327C51.7062 158.539 8.418 131.801 19.0321 103.153C29.6462 74.9342 19.0568 80.9382 8.25441 41.9127Z" stroke="#222222" stroke-width="0.753258"/>
<path id="Vector 90 - Vector 91 - 182" d="M13.7068 44.4881C4.65605 11.8342 38.4049 7.4875 62.8478 17.6089C77.3922 23.0012 87.2259 7.27065 104.802 13.6239C123.235 20.2877 102.286 39.9663 128.994 50.5247C155.836 61.212 143.458 107.686 118.926 108.2C94.7014 108.714 101.393 116.902 77.5249 134.362C53.6572 151.822 14.0339 127.471 23.5866 100.934C33.1392 75.2534 23.6362 80.231 13.7068 44.4881Z" stroke="#222222" stroke-width="0.753258"/>
<path id="Vector 90 - Vector 91 - 273" d="M19.1592 47.0636C10.9758 17.6243 41.6224 13.0933 63.8702 22.3749C77.2754 27.4288 86.5022 13.2702 102.446 19.0338C119.676 25.2633 100.744 42.9174 124.862 52.666C149.181 62.6082 138.397 105.077 115.535 105.533C93.1331 105.99 99.3407 113.691 77.4745 129.398C55.6083 145.104 19.6498 123.141 28.1411 98.7145C36.6323 75.5728 28.2156 79.5239 19.1592 47.0636Z" stroke="#222222" stroke-width="0.753258"/>
<path id="Vector 90 - Vector 91 - 364" d="M24.6116 49.6393C17.2956 23.4146 44.84 18.6994 64.8927 27.1411C77.1588 31.8566 85.7784 19.27 100.09 24.4439C116.116 30.239 99.2014 45.8686 120.729 54.8076C142.525 64.0046 133.336 102.468 112.144 102.867C91.5648 103.267 97.2889 110.48 77.4241 124.433C57.5594 138.387 25.2658 118.811 32.6956 96.4953C40.1255 75.8923 32.7951 78.817 24.6116 49.6393Z" stroke="#222222" stroke-width="0.753258"/>
<path id="Vector 90 - Vector 91 - 455" d="M30.0641 52.3453C23.6155 29.3353 48.0576 24.4357 65.9152 32.0376C77.0421 36.4148 85.0547 25.4001 97.7346 29.9844C112.557 35.3451 97.6592 48.9502 116.597 57.0795C135.87 65.5313 128.276 99.9888 108.753 100.331C89.9966 100.674 95.2371 107.399 77.3738 119.599C59.5105 131.8 30.8818 114.611 37.2502 94.4065C43.6187 76.3422 37.3746 78.2405 30.0641 52.3453Z" stroke="#222222" stroke-width="0.753258"/>
<path id="Vector 90 - Vector 91 - 545" d="M35.5167 55.2059C29.9354 35.4105 51.2753 30.3266 66.9378 37.0887C76.9255 41.1275 84.3312 31.6848 95.379 35.6794C108.998 40.6057 96.117 52.1863 112.465 59.5059C129.215 67.2126 123.215 97.6645 105.362 97.9498C88.4284 98.2351 93.1854 104.472 77.3236 114.92C61.4617 125.367 36.4979 110.566 41.8049 92.4722C47.112 76.9467 41.9542 77.8186 35.5167 55.2059Z" stroke="#222222" stroke-width="0.753258"/>
<path id="Vector 90 - Vector 91 - 636" d="M40.9694 58.0751C36.2555 41.4942 54.4932 36.2261 67.9605 42.1483C76.8091 45.8487 83.6077 37.978 93.0235 41.3829C105.439 45.8749 94.575 55.4309 108.333 61.9409C122.56 68.9024 118.155 95.3487 101.971 95.5769C86.8604 95.8052 91.1339 101.554 77.2735 110.249C63.4131 118.944 42.1141 106.53 46.3598 90.5464C50.6054 77.5597 46.534 77.4051 40.9694 58.0751Z" stroke="#222222" stroke-width="0.753258"/>
<path id="Vector 90 - Vector 91 - 727" d="M46.4223 60.9565C42.5758 47.5903 57.7113 42.1379 68.9835 47.2203C76.6929 50.5823 82.8845 44.2836 90.6682 47.0988C101.88 51.1564 93.0332 58.6879 104.201 64.3882C115.905 70.6045 113.095 93.0452 98.5799 93.2164C85.2927 93.3876 89.0826 98.6488 77.2237 105.59C65.3647 112.532 47.7306 102.506 50.9148 88.633C54.099 78.185 51.1139 77.0041 46.4223 60.9565Z" stroke="#222222" stroke-width="0.753258"/>
<path id="Vector 90 - Vector 91 - 818" d="M51.8757 63.8562C48.8965 53.7046 60.9297 48.0679 70.0069 52.3104C76.5771 55.3341 82.1617 50.6073 88.3133 52.8329C98.322 56.4561 91.4918 61.9631 100.07 66.8538C109.251 72.3249 108.035 90.7599 95.1896 90.8741C83.7253 90.9882 87.0317 95.7615 77.1742 100.95C67.3167 106.139 53.3475 98.4997 55.4703 86.7378C57.5931 78.8286 55.6943 76.6212 51.8757 63.8562Z" stroke="#222222" stroke-width="0.753258"/>
<path id="Vector 90 - Vector 91 - 909" d="M57.3298 66.7834C55.218 59.8464 64.149 54.0254 71.0311 57.4281C76.4621 60.1134 81.4397 56.9586 85.9592 58.5945C94.7644 61.7833 89.9513 65.2658 95.9394 69.3468C102.597 74.0727 102.976 88.5022 91.8002 88.5593C82.1587 88.6163 84.9816 92.9017 77.1256 96.3373C69.2695 99.7729 58.9651 94.5213 60.0265 84.8701C61.0879 79.4997 60.2754 76.2658 57.3298 66.7834Z" stroke="#222222" stroke-width="0.753258"/>
</g>
</svg>
