<svg width="15" height="15" viewBox="0 0 15 15" fill="none" xmlns="http://www.w3.org/2000/svg">
<g id="teenyicons:twitter-outline" clip-path="url(#clip0_1_191)">
<path id="Vector" d="M1.5 0.521875L1.467 0.0218754C1.36884 0.0283661 1.27478 0.0636683 1.19659 0.123363C1.11839 0.183059 1.05955 0.264493 1.02742 0.357472C0.995284 0.450452 0.991294 0.550843 1.01595 0.646079C1.0406 0.741315 1.09279 0.827163 1.166 0.892875L1.5 0.521875ZM4.459 1.01988C4.32639 1.01988 4.19922 1.07255 4.10545 1.16632C4.01168 1.26009 3.959 1.38727 3.959 1.51988C3.959 1.65248 4.01168 1.77966 4.10545 1.87343C4.19922 1.9672 4.32639 2.01988 4.459 2.01988V1.01988ZM12.5 14.4999H12C11.9999 14.6072 12.0343 14.7118 12.0982 14.7981C12.1621 14.8843 12.2521 14.9478 12.3548 14.9789C12.4575 15.0101 12.5676 15.0074 12.6686 14.9712C12.7697 14.935 12.8564 14.8672 12.916 14.7779L12.5 14.4999ZM1.5 13.5019L1.325 13.0329C1.23371 13.067 1.15437 13.127 1.09673 13.2055C1.03909 13.2841 1.00566 13.3778 1.00056 13.4751C0.995464 13.5724 1.01891 13.6691 1.06802 13.7533C1.11714 13.8375 1.18977 13.9054 1.277 13.9489L1.5 13.5019ZM10.5 9.50788L10.853 9.15388C10.7928 9.09382 10.7182 9.05012 10.6363 9.02693C10.5545 9.00374 10.4681 9.00181 10.3853 9.02133C10.3025 9.04086 10.226 9.08119 10.1631 9.1385C10.1003 9.19582 10.0531 9.26823 10.026 9.34888L10.5 9.50788ZM2.473 2.28388L2.809 2.65388L3.008 2.47388L2.968 2.20887L2.473 2.28388ZM1.533 1.01988C2.311 0.968876 2.783 1.01687 3.139 1.14287C3.484 1.26487 3.768 1.47888 4.139 1.86588L4.861 1.17387C4.441 0.735875 4.029 0.397875 3.473 0.199875C2.927 0.00687504 2.295 -0.0331249 1.467 0.0218754L1.533 1.01988ZM5.187 1.01988H4.459V2.01988H5.188V1.01988H5.187ZM4.541 8.00988H5.5L5.5 7.00988H4.541V8.00988ZM5.5 8.00988H6L6 7.00988H5.5L5.5 8.00988ZM1 4.47488C1.00027 4.93962 1.09206 5.39977 1.27016 5.82904C1.44825 6.25831 1.70915 6.6483 2.03797 6.97674C2.36678 7.30518 2.75706 7.56564 3.18653 7.74325C3.61601 7.92086 4.07625 8.01214 4.541 8.01188V7.01188C4.20749 7.01214 3.8772 6.94669 3.56899 6.81927C3.26078 6.69186 2.98069 6.50497 2.74472 6.26928C2.50875 6.03359 2.32153 5.75372 2.19375 5.44566C2.06597 5.1376 2.00013 4.80739 2 4.47388H1V4.47488ZM5.187 2.02087C9.503 2.01987 13 5.51288 13 9.81988H14C14 4.95988 10.054 1.01988 5.187 1.01988V2.02087ZM1.675 13.9699C3.127 13.4259 6 11.3859 6 7.50988H5C5 10.8259 2.54 12.5789 1.325 13.0339L1.675 13.9699ZM1.277 13.9489C3.373 14.9959 5.407 15.1569 7.139 14.3959C8.866 13.6369 10.194 12.0039 10.974 9.66588L10.026 9.34888C9.306 11.5039 8.134 12.8669 6.736 13.4809C5.343 14.0929 3.626 14.0039 1.723 13.0539L1.277 13.9489ZM10.147 9.86188C10.75 10.4639 12 12.2739 12 14.4999H13C13 11.9339 11.584 9.88288 10.853 9.15388L10.147 9.86188ZM2.138 1.91288C1.77946 2.23618 1.49287 2.63124 1.29682 3.07243C1.10077 3.51362 0.999649 3.99109 1 4.47388H2C2 3.75288 2.311 3.10388 2.809 2.65388L2.138 1.91288ZM2.968 2.20887C2.83787 1.41233 2.43742 0.684887 1.834 0.148875L1.166 0.892875C1.59674 1.27414 1.8837 1.79159 1.979 2.35888L2.968 2.20887ZM12.916 14.7779C14.01 13.1369 14 11.4169 14 9.81988H13C13 11.4499 12.989 12.8679 12.084 14.2219L12.916 14.7779Z" fill="white"/>
</g>
<defs>
<clipPath id="clip0_1_191">
<rect width="15" height="15" fill="white" transform="matrix(0 -1 1 0 0 15)"/>
</clipPath>
</defs>
</svg>
